<svg xmlns="http://www.w3.org/2000/svg" version="1.1" xmlns:xlink="http://www.w3.org/1999/xlink" xmlns:svgjs="http://svgjs.com/svgjs" width="512" height="512" x="0" y="0" viewBox="0 0 32 32" style="enable-background:new 0 0 512 512" xml:space="preserve" class=""><g><path d="M3 7h2.142c.447 1.72 2 3 3.858 3s3.411-1.28 3.858-3H29a1 1 0 1 0 0-2H12.858c-.447-1.72-2-3-3.858-3S5.589 3.28 5.142 5H3a1 1 0 0 0 0 2zm6-3c1.103 0 2 .897 2 2s-.897 2-2 2-2-.897-2-2 .897-2 2-2zM29 15h-2.142c-.447-1.72-1.999-3-3.858-3s-3.411 1.28-3.858 3H3a1 1 0 0 0 0 2h16.142c.447 1.72 1.999 3 3.858 3s3.411-1.28 3.858-3H29a1 1 0 1 0 0-2zm-6 3c-1.103 0-2-.897-2-2s.897-2 2-2 2 .897 2 2-.897 2-2 2zM29 25H12.858c-.447-1.72-2-3-3.858-3s-3.411 1.28-3.858 3H3a1 1 0 0 0 0 2h2.142c.447 1.72 2 3 3.858 3s3.411-1.28 3.858-3H29a1 1 0 1 0 0-2zM9 28c-1.103 0-2-.897-2-2s.897-2 2-2 2 .897 2 2-.897 2-2 2z" fill="#000000" data-original="#000000" class=""></path></g></svg>